<svg xmlns="http://www.w3.org/2000/svg" width="100%" height="100%" viewBox="0 0 1000 1000" stroke-linejoin="round" stroke-miterlimit="2"><path d="M0 0h1000v1000H0z" fill="#282a36"/><path d="M528.199 960.244c-71.504 0-136.965-11.078-196.384-32.227s-111.788-51.362-155.093-90.639-77.547-84.596-100.71-138.98c-24.17-53.376-36.256-111.788-36.256-175.235 0-67.476 13.092-130.923 39.277-189.335 26.185-59.419 62.44-110.781 110.781-154.086 47.334-44.312 101.717-78.554 164.157-103.731 62.44-24.17 129.916-36.256 202.427-36.256 80.568 0 151.065 15.106 211.491 45.319s107.76 72.511 140.994 125.887c34.241 54.383 51.362 117.831 51.362 189.335 0 46.327-7.05 90.639-20.142 131.93-14.099 41.291-33.234 78.554-56.398 110.781-24.17 32.227-51.362 57.405-82.582 76.539-30.213 19.135-62.44 28.199-96.681 28.199-33.234 0-57.405-10.071-74.525-29.206-18.128-19.135-28.199-48.341-31.22-86.61h-4.028c-21.149 35.248-46.327 62.44-77.547 84.596-31.22 20.142-61.433 31.22-92.653 31.22-29.206 0-54.383-7.05-77.547-22.156s-40.284-35.248-54.383-61.433c-12.085-26.185-19.135-55.39-19.135-88.625 0-37.263 8.057-72.511 22.156-107.76 16.114-35.248 36.256-66.468 61.433-94.667s54.383-50.355 86.61-66.468c31.22-17.121 64.454-25.177 97.689-25.177 31.22 0 56.398 8.057 75.532 24.17s33.234 41.291 42.298 74.525l4.028 1.007 22.156-89.632h96.681l-67.476 238.682c-7.05 27.192-14.099 52.369-18.128 76.539-5.035 23.163-8.057 40.284-8.057 50.355 0 13.092 4.028 23.163 12.085 29.206 8.057 7.05 19.135 11.078 32.227 11.078 22.156 0 44.312-8.057 65.461-25.177s41.291-40.284 59.419-68.483c17.121-28.199 31.22-59.419 41.291-94.667 11.078-35.248 16.114-70.497 16.114-106.752 0-45.319-9.064-87.618-26.185-125.887-17.121-39.277-42.298-72.511-73.518-100.71-31.22-29.206-68.483-51.362-111.788-67.476-43.305-15.106-89.632-23.163-140.994-23.163-60.426 0-116.823 11.078-169.193 33.234s-97.689 53.376-136.965 92.653c-39.277 40.284-70.497 87.618-91.646 139.987-22.156 54.383-33.234 111.788-33.234 173.221 0 76.539 17.121 144.015 51.362 202.427s82.582 103.731 144.015 135.958c61.433 33.234 132.937 49.348 214.512 49.348 113.802 0 218.54-33.234 316.229-100.71l21.149 31.22c-59.419 41.291-116.823 70.497-172.214 89.632s-114.809 28.199-178.256 28.199zm-88.625-257.817c21.149 0 43.305-8.057 65.461-24.17s42.298-37.263 60.426-64.454 33.234-56.398 44.312-88.625c10.071-32.227 16.114-64.454 16.114-96.681 0-33.234-7.05-58.412-20.142-77.547-13.092-18.128-32.227-27.192-56.398-27.192-22.156 0-43.305 8.057-65.461 23.163-21.149 15.106-39.277 36.256-56.398 62.44s-30.213 55.39-40.284 87.618-15.106 65.461-15.106 99.703c0 70.497 22.156 105.745 67.476 105.745z" fill="#f9f9fb" fill-rule="nonzero"/></svg>
